<svg width="727" height="560" viewBox="0 0 727 560" fill="none" xmlns="http://www.w3.org/2000/svg">
<g opacity="0.1">
<path d="M96.7909 0L290.373 0L242.575 560H48.9937L96.7909 0Z" fill="url(#paint0_linear_0_305)"/>
<path d="M289.823 0.498097L242.11 559.501H49.5438L97.2555 0.498097L289.823 0.498097Z" stroke="url(#paint1_linear_0_305)" stroke-opacity="0.12"/>
</g>
<g opacity="0.3">
<path d="M290.157 0L483.739 0L435.942 560H242.36L290.157 0Z" fill="url(#paint2_linear_0_305)"/>
<path d="M483.189 0.498097L435.476 559.501H242.91L290.622 0.498097L483.189 0.498097Z" stroke="url(#paint3_linear_0_305)" stroke-opacity="0.12"/>
</g>
<g opacity="0.2">
<path d="M483.523 0L677.105 0L629.308 560H435.726L483.523 0Z" fill="url(#paint4_linear_0_305)"/>
<path d="M676.555 0.498097L628.843 559.501H436.276L483.988 0.498097L676.555 0.498097Z" stroke="url(#paint5_linear_0_305)" stroke-opacity="0.12"/>
</g>
<defs>
<linearGradient id="paint0_linear_0_305" x1="145.186" y1="0" x2="145.186" y2="560" gradientUnits="userSpaceOnUse">
<stop stop-color="white"/>
<stop offset="1" stop-color="white" stop-opacity="0"/>
</linearGradient>
<linearGradient id="paint1_linear_0_305" x1="145.186" y1="0" x2="145.186" y2="560" gradientUnits="userSpaceOnUse">
<stop stop-color="white"/>
<stop offset="1" stop-color="white" stop-opacity="0"/>
</linearGradient>
<linearGradient id="paint2_linear_0_305" x1="338.553" y1="0" x2="338.553" y2="560" gradientUnits="userSpaceOnUse">
<stop stop-color="white"/>
<stop offset="1" stop-color="white" stop-opacity="0"/>
</linearGradient>
<linearGradient id="paint3_linear_0_305" x1="338.553" y1="0" x2="338.553" y2="560" gradientUnits="userSpaceOnUse">
<stop stop-color="white"/>
<stop offset="1" stop-color="white" stop-opacity="0"/>
</linearGradient>
<linearGradient id="paint4_linear_0_305" x1="531.919" y1="0" x2="531.919" y2="560" gradientUnits="userSpaceOnUse">
<stop stop-color="white"/>
<stop offset="1" stop-color="white" stop-opacity="0"/>
</linearGradient>
<linearGradient id="paint5_linear_0_305" x1="531.919" y1="0" x2="531.919" y2="560" gradientUnits="userSpaceOnUse">
<stop stop-color="white"/>
<stop offset="1" stop-color="white" stop-opacity="0"/>
</linearGradient>
</defs>
</svg>
